<svg id="Capa_1" enable-background="new 0 0 512 512" height="512" viewBox="0 0 512 512" width="512" xmlns="http://www.w3.org/2000/svg"><g><g><g><path d="m376 283h57c8.284 0 15-6.716 15-15s-6.716-15-15-15h-57c-8.284 0-15 6.716-15 15s6.716 15 15 15z" fill="#61729b"/></g></g><g><g><path d="m359 203h76c24.813 0 45-20.187 45-45v-79c0-8.284-6.716-15-15-15s-15 6.716-15 15v79c0 8.271-6.729 15-15 15h-76c-8.284 0-15 6.716-15 15s6.716 15 15 15z" fill="#61729b"/></g></g><g><g><path d="m418 47c0-25.916 21.084-47 47-47s47 21.084 47 47-21.084 47-47 47-47-21.084-47-47z" fill="#65cc3a"/></g></g><g><g><path d="m418 268c0-25.916 21.084-47 47-47s47 21.084 47 47-21.084 47-47 47-47-21.084-47-47z" fill="#ffbe40"/></g></g><g><g><path d="m136 283h-57c-8.284 0-15-6.716-15-15s6.716-15 15-15h57c8.284 0 15 6.716 15 15s-6.716 15-15 15z" fill="#61729b"/></g></g><g><g><path d="m153 203h-76c-24.813 0-45-20.187-45-45v-79c0-8.284 6.716-15 15-15s15 6.716 15 15v79c0 8.271 6.729 15 15 15h76c8.284 0 15 6.716 15 15s-6.716 15-15 15z" fill="#61729b"/></g></g><g><g><path d="m47 94c-25.916 0-47-21.084-47-47s21.084-47 47-47 47 21.084 47 47-21.084 47-47 47z" fill="#ffdf40"/></g></g><g><g><path d="m47 315c-25.916 0-47-21.084-47-47s21.084-47 47-47 47 21.084 47 47-21.084 47-47 47z" fill="#ace233"/></g></g><g><path d="m359 123v32c0 8.28-6.72 15-15 15s-15-6.72-15-15v-32c0-40.25-32.75-73-73-73s-73 32.75-73 73v32c0 8.28-6.72 15-15 15s-15-6.72-15-15v-32c0-56.79 46.21-103 103-103s103 46.21 103 103z" fill="#d6d6f2"/></g><g><path d="m359 123v32c0 8.28-6.72 15-15 15s-15-6.72-15-15v-32c0-40.25-32.75-73-73-73v-30c56.79 0 103 46.21 103 103z" fill="#bfbfef"/></g><g><path d="m376 185v183h-240v-183c0-16.57 13.43-30 30-30h180c16.57 0 30 13.43 30 30z" fill="#ff9100"/></g><g><path d="m376 185v183h-120v-213h90c16.57 0 30 13.43 30 30z" fill="#ff641a"/></g><g><path d="m271 246v32c0 8.28-6.72 15-15 15s-15-6.72-15-15v-32c0-8.28 6.72-15 15-15s15 6.72 15 15z" fill="#ff641a"/></g><g><path d="m271 246v32c0 8.28-6.72 15-15 15v-62c8.28 0 15 6.72 15 15z" fill="#f03800"/></g><g><path d="m448 382v100c0 16.57-13.43 30-30 30h-324c-16.57 0-30-13.43-30-30v-100c0-16.57 13.43-30 30-30h324c16.57 0 30 13.43 30 30z" fill="#d6d6f2"/></g><g><path d="m448 382v100c0 16.57-13.43 30-30 30h-162v-160h162c16.57 0 30 13.43 30 30z" fill="#bfbfef"/></g><g><circle cx="384" cy="431" fill="#2c3b73" r="15.005"/></g><g><circle cx="320" cy="431" fill="#2c3b73" r="15.005"/></g><g><circle cx="256" cy="431" fill="#47568c" r="15"/></g><g><path d="m271 431c0 8.28-6.72 15-15 15v-30c8.28 0 15 6.72 15 15z" fill="#2c3b73"/></g><g><circle cx="192" cy="431" fill="#47568c" r="15.005"/></g><g><circle cx="128" cy="431" fill="#47568c" r="15.005"/></g></g></svg>